/* XPM */
static char *_30b361312eb465cd2fbdeb9d5f6affeI4EUNxFyfXXzZPCg[] = {
/* columns rows colors chars-per-pixel */
"64 64 2 1 ",
"  c black",
". c gray1",
/* pixels */
"           .       .    ...     .     ....                      ",
"          ..      ..    ...     ..      ..                      ",
"          ..   .     .        ....            .. .. ..          ",
"          .   ..    .         ..               ......           ",
"            ..   ...           .              .......           ",
"            .   ...            .              .  .. ..          ",
"        ..             . .               ...                    ",
"      ...                                  .                    ",
"    ..     .                                          ...       ",
"          ..                                          ..        ",
"          .                                     .     .         ",
"                                                                ",
"          ...                                                   ",
"        ..                                                      ",
"                                                                ",
"                                                                ",
"    .                                                           ",
"    .                                                           ",
"                                                                ",
"                                                                ",
"                                                                ",
"                                                                ",
"                                                                ",
"                                                                ",
"                                                                ",
"                                                                ",
"                                                                ",
"                                                                ",
"        .                                                       ",
"                                                                ",
"                                                                ",
"      ..    ..                                                  ",
"                                                                ",
"        .                                                       ",
"        ..  ..                                                  ",
"        .                                                       ",
"                                                                ",
"                                                                ",
"                                                                ",
"                                                                ",
"    ..                                                          ",
"                                                                ",
"                                                                ",
"                                                                ",
"      .                                                         ",
"      .                                                         ",
"                                                                ",
"                                                                ",
"                                                                ",
"         .                                                      ",
"                                                                ",
"            ..                                                  ",
"        ...                                            .        ",
"          ..                                           .        ",
"              ..                            ..       ...        ",
"      ..   .                                 . .     . .        ",
"    ..     .                                     ...   ..       ",
"          .. .           .                              .       ",
"          . ..      .         ..    .       . .                 ",
"            .       .        ...    .       ... .   ...         ",
"          ...   ...            .  .     ..      ..              ",
"        ...     ...        .      .       ..      ..            ",
"               .      .. ..           ..      .    . ..         ",
"               .      ..  ..          ..  ..          .         "
};
