/* XPM */
static char *result[] = {
/* columns rows colors chars-per-pixel */
"64 64 3 1 ",
"  c black",
". c gray1",
"X c #FCFF00",
/* pixels */
"                                                                ",
"                                                                ",
"                                                                ",
"                                                                ",
"                                                                ",
"                                                                ",
"                                                                ",
"                                                                ",
"                                                                ",
"                                                                ",
"                                                                ",
"                                                                ",
"                                                                ",
"                                                                ",
"       ..................................................       ",
"       ..................................................       ",
"       ..................................................       ",
"       ..................................................       ",
"       ..................................................       ",
"       ..................................................       ",
"       ..................................................       ",
"       ..................XXXXXXXXXXXXXX..................       ",
"       ..................XXXXXXXXXXXXXX..................       ",
"       ..................XXXXXXXXXXXXXX..................       ",
"       ..................XXXXXXXXXXXXXX..................       ",
"       ..............XXXXXXXXXXXXXXXXXXXXXX..............       ",
"       ..............XXXXXXXXXXXXXXXXXXXXXX..............       ",
"       ..............XXXXXXXXXXXXXXXXXXXXXX..............       ",
"       ..............XXXXXXXXXXXXXXXXXXXXXX..............       ",
"       ..............XXXXXXXXXXXXXXXXXXXXXX..............       ",
"       ..............XXXXXXXXXXXXXXXXXXXXXX..............       ",
"       ..............XXXXXXXXXXXXXXXXXXXXXX..............       ",
"       ..............XXXXXXXXXXXXXXXXXXXXXX..............       ",
"       ..............XXXXXXXXXXXXXXXXXXXXXX..............       ",
"       ..............XXXXXXXXXXXXXXXXXXXXXX..............       ",
"       ..............XXXXXXXXXXXXXXXXXXXXXX..............       ",
"       ..............XXXXXXXXXXXXXXXXXXXXXX..............       ",
"       ..............XXXXXXXXXXXXXXXXXXXXXX..............       ",
"       ..............XXXXXXXXXXXXXXXXXXXXXX..............       ",
"       ..................XXXXXXXXXXXXXX..................       ",
"       ..................XXXXXXXXXXXXXX..................       ",
"       ..................XXXXXXXXXXXXXX..................       ",
"       ..................XXXXXXXXXXXXXX..................       ",
"       ..................................................       ",
"       ..................................................       ",
"       ..................................................       ",
"       ..................................................       ",
"       ..................................................       ",
"       ..................................................       ",
"       ..................................................       ",
"       ..................................................       ",
"       ..................................................       ",
"       ..................................................       ",
"                                                                ",
"                                                                ",
"                                                                ",
"                                                                ",
"                                                                ",
"                                                                ",
"                                                                ",
"                                                                ",
"                                                                ",
"                                                                ",
"                                                                "
};
