/* XPM */
static char *result[] = {
/* columns rows colors chars-per-pixel */
"64 64 3 1 ",
"  c black",
". c gray1",
"X c #FCFF00",
/* pixels */
"                                                                ",
"                                                                ",
"                                                                ",
"                                                                ",
"                                                                ",
"                                                                ",
"                                                                ",
"                                                                ",
"                                                                ",
"                                                                ",
"                                                                ",
"              .......................................           ",
"              .......................................           ",
"              .......................................           ",
"              .......................................           ",
"              .......................................           ",
"              .......................................           ",
"              .......................................           ",
"              .......................................           ",
"              .......................................           ",
"              .......................................           ",
"              .......................................           ",
"              .......................................           ",
"              .......................................           ",
"              .......................................           ",
"              .......................................           ",
"              .......................................           ",
"              .......................................           ",
"              ..............XXXXXXXX.................           ",
"              ..............XXXXXXXX.................           ",
"              ..............XXXXXXXX.................           ",
"              ..............XXXXXXXX.................           ",
"              ..............XXXXXXXX.................           ",
"              ..............XXXXXXXX.................           ",
"              ..............XXXXXXXX.................           ",
"              ..............XXXXXXXX.................           ",
"              .......................................           ",
"              .......................................           ",
"              .......................................           ",
"              .......................................           ",
"              .......................................           ",
"              .......................................           ",
"              .......................................           ",
"              .......................................           ",
"              .......................................           ",
"              .......................................           ",
"              .......................................           ",
"              .......................................           ",
"              .......................................           ",
"              .......................................           ",
"              .......................................           ",
"              .......................................           ",
"              .......................................           ",
"                                                                ",
"                                                                ",
"                                                                ",
"                                                                ",
"                                                                ",
"                                                                ",
"                                                                ",
"                                                                ",
"                                                                ",
"                                                                ",
"                                                                "
};
