/* XPM */
static char *result[] = {
/* columns rows colors chars-per-pixel */
"64 64 5 1 ",
"  c black",
". c gray1",
"X c #FF9200",
"o c #0101FF",
"O c #FBFBFB",
/* pixels */
"                                                                ",
"                                                                ",
"                                                                ",
"                                                                ",
"                                                                ",
"       .....................................................    ",
"       .....................................................    ",
"       .....................................................    ",
"       .....................................................    ",
"       ..................XXXXXXXXXXXXXX.....................    ",
"       ..................XXXXXXXXXXXXXX.....................    ",
"       ..................XXXXXXXXXXXXXX.....................    ",
"       ...........XXXXXXXXXXXXXXXXXXXXXXXXXXXX..............    ",
"       ...........XXXXXXXXXXXXXXXXXXXXXXXXXXXX..............    ",
"       ...........XXXXXXXXXXXXXXXXXXXXXXXXXXXX..............    ",
"       ...........XXXXXXXXXXXXXXXXXXXXXXXXXXXX..............    ",
"       .......XXXXXXXXXXXXXXXXXXXXXXXXXXXXXXXXXXXX..........    ",
"       .......XXXXXXXXXXXXXXXXXXXXXXXXXXXXXXXXXXXX..........    ",
"       .......XXXXXXXXXXXXXXXXXXXXXXXXXXXXXXXXXXXX..........    ",
"       ....XXXXXXXXXXXXXXXXXXXXXXXXXXXXXXXXXXXXXXXXXX.......    ",
"       ....XXXXXXXXXXXXXXXXXXXXXXXXXXXXXXXXXXXXXXXXXX.......    ",
"       ....XXXXXXXXXXXXXXXXXXXXXXXXXXXXXXXXXXXXXXXXXX.......    ",
"       ....XXXXXXXXXXXXXXXXXXXXXXXXXXXXXXXXXXXXXXXXXX.......    ",
"       ....XXXXXXXOOOOOOOXXXXXXXXXXXXXXOOOOOOOXXXXXXX.......    ",
"       ....XXXXXXXOOOOOOOXXXXXXXXXXXXXXOOOOOOOXXXXXXX.......    ",
"       ....XXXXXXXOOOOOOOXXXXXXXXXXXXXXOOOOOOOXXXXXXX.......    ",
"       ....XXXOOOOOOOOOOOOOOXXXXXXXXOOOOOOOOOOOOOOXXX.......    ",
"       ....XXXOOOOOOOOOOOOOOXXXXXXXXOOOOOOOOOOOOOOXXX.......    ",
"       ....XXXOOOOOOOOOOOOOOXXXXXXXXOOOOOOOOOOOOOOXXX.......    ",
"       ....XXXOOOOOOOOOOOOOOXXXXXXXXOOOOOOOOOOOOOOXXX.......    ",
"       XXXXXXXOOOOOOOOOOOOOOXXXXXXXXOOOOOOOOOOOOOOXXXXXXX...    ",
"       XXXXXXXOOOOOOOOOOOOOOXXXXXXXXOOOOOOOOOOOOOOXXXXXXX...    ",
"       XXXXXXXOOOOOOOOOOOOOOXXXXXXXXOOOOOOOOOOOOOOXXXXXXX...    ",
"       XXXXXXXOOOOoooooooOOOXXXXXXXXOOOoooooooOOOOXXXXXXX...    ",
"       XXXXXXXOOOOoooooooOOOXXXXXXXXOOOoooooooOOOOXXXXXXX...    ",
"       XXXXXXXOOOOoooooooOOOXXXXXXXXOOOoooooooOOOOXXXXXXX...    ",
"       XXXXXXXOOOOoooooooOOOXXXXXXXXOOOoooooooOOOOXXXXXXX...    ",
"       XXXXXXXXXXXoooooooXXXXXXXXXXXXXXoooooooXXXXXXXXXXX...    ",
"       XXXXXXXXXXXoooooooXXXXXXXXXXXXXXoooooooXXXXXXXXXXX...    ",
"       XXXXXXXXXXXoooooooXXXXXXXXXXXXXXoooooooXXXXXXXXXXX...    ",
"       XXXXXXXXXXXoooooooXXXXXXXXXXXXXXoooooooXXXXXXXXXXX...    ",
"       XXXXXXXXXXXXXXXXXXXXXXXXXXXXXXXXXXXXXXXXXXXXXXXXXX...    ",
"       XXXXXXXXXXXXXXXXXXXXXXXXXXXXXXXXXXXXXXXXXXXXXXXXXX...    ",
"       XXXXXXXXXXXXXXXXXXXXXXXXXXXXXXXXXXXXXXXXXXXXXXXXXX...    ",
"       XXXXXXXXXXXXXXXXXXXXXXXXXXXXXXXXXXXXXXXXXXXXXXXXXX...    ",
"       XXXXXXXXXXXXXXXXXXXXXXXXXXXXXXXXXXXXXXXXXXXXXXXXXX...    ",
"       XXXXXXXXXXXXXXXXXXXXXXXXXXXXXXXXXXXXXXXXXXXXXXXXXX...    ",
"       XXXXXXXXXXXXXXXXXXXXXXXXXXXXXXXXXXXXXXXXXXXXXXXXXX...    ",
"       XXXXXXXXXXXXXXXXXXXXXXXXXXXXXXXXXXXXXXXXXXXXXXXXXX...    ",
"       XXXXXXXXXXXXXXXXXXXXXXXXXXXXXXXXXXXXXXXXXXXXXXXXXX...    ",
"       XXXXXXXXXXXXXXXXXXXXXXXXXXXXXXXXXXXXXXXXXXXXXXXXXX...    ",
"       XXXXXXXXXXXXXX....XXXXXXXXXXXXXX....XXXXXXXXXXXXXX...    ",
"       XXXXXXXXXXXXXX....XXXXXXXXXXXXXX....XXXXXXXXXXXXXX...    ",
"       XXXXXXXXXXXXXX....XXXXXXXXXXXXXX....XXXXXXXXXXXXXX...    ",
"       XXXXXXXXXXXXXX....XXXXXXXXXXXXXX....XXXXXXXXXXXXXX...    ",
"       ....XXXXXXX..........XXXXXXXX..........XXXXXXX.......    ",
"       ....XXXXXXX..........XXXXXXXX..........XXXXXXX.......    ",
"       ....XXXXXXX..........XXXXXXXX..........XXXXXXX.......    ",
"       .....................................................    ",
"       .....................................................    ",
"       .....................................................    ",
"       .....................................................    ",
"       .....................................................    ",
"                                                                "
};
