/* XPM */
static char *result[] = {
/* columns rows colors chars-per-pixel */
"64 64 5 1 ",
"  c black",
". c gray1",
"X c #0101FF",
"o c #FFABFE",
"O c #FBFBFB",
/* pixels */
"                                                                ",
"                                                                ",
"                                                                ",
"                                                                ",
"                                                                ",
"       .....................................................    ",
"       .....................................................    ",
"       .....................................................    ",
"       .....................................................    ",
"       ..................oooooooooooooo.....................    ",
"       ..................oooooooooooooo.....................    ",
"       ..................oooooooooooooo.....................    ",
"       ...........oooooooooooooooooooooooooooo..............    ",
"       ...........oooooooooooooooooooooooooooo..............    ",
"       ...........oooooooooooooooooooooooooooo..............    ",
"       ...........oooooooooooooooooooooooooooo..............    ",
"       .......oooooooooooooooooooooooooooooooooooo..........    ",
"       .......oooooooooooooooooooooooooooooooooooo..........    ",
"       .......oooooooooooooooooooooooooooooooooooo..........    ",
"       ....oooooooooooooooooooooooooooooooooooooooooo.......    ",
"       ....oooooooooooooooooooooooooooooooooooooooooo.......    ",
"       ....oooooooooooooooooooooooooooooooooooooooooo.......    ",
"       ....oooooooooooooooooooooooooooooooooooooooooo.......    ",
"       ....oooooooOOOOOOOooooooooooooooOOOOOOOooooooo.......    ",
"       ....oooooooOOOOOOOooooooooooooooOOOOOOOooooooo.......    ",
"       ....oooooooOOOOOOOooooooooooooooOOOOOOOooooooo.......    ",
"       ....oooOOOOOOOOOOOOOOooooooooOOOOOOOOOOOOOOooo.......    ",
"       ....oooOOOOOOOOOOOOOOooooooooOOOOOOOOOOOOOOooo.......    ",
"       ....oooOOOOOOOOOOOOOOooooooooOOOOOOOOOOOOOOooo.......    ",
"       ....oooOOOOOOOOOOOOOOooooooooOOOOOOOOOOOOOOooo.......    ",
"       oooooooOOOOOOOOOOOOOOooooooooOOOOOOOOOOOOOOooooooo...    ",
"       oooooooOOOOOOOOOOOOOOooooooooOOOOOOOOOOOOOOooooooo...    ",
"       oooooooOOOOOOOOOOOOOOooooooooOOOOOOOOOOOOOOooooooo...    ",
"       oooooooOOOOXXXXXXXOOOooooooooOOOXXXXXXXOOOOooooooo...    ",
"       oooooooOOOOXXXXXXXOOOooooooooOOOXXXXXXXOOOOooooooo...    ",
"       oooooooOOOOXXXXXXXOOOooooooooOOOXXXXXXXOOOOooooooo...    ",
"       oooooooOOOOXXXXXXXOOOooooooooOOOXXXXXXXOOOOooooooo...    ",
"       oooooooooooXXXXXXXooooooooooooooXXXXXXXooooooooooo...    ",
"       oooooooooooXXXXXXXooooooooooooooXXXXXXXooooooooooo...    ",
"       oooooooooooXXXXXXXooooooooooooooXXXXXXXooooooooooo...    ",
"       oooooooooooXXXXXXXooooooooooooooXXXXXXXooooooooooo...    ",
"       oooooooooooooooooooooooooooooooooooooooooooooooooo...    ",
"       oooooooooooooooooooooooooooooooooooooooooooooooooo...    ",
"       oooooooooooooooooooooooooooooooooooooooooooooooooo...    ",
"       oooooooooooooooooooooooooooooooooooooooooooooooooo...    ",
"       oooooooooooooooooooooooooooooooooooooooooooooooooo...    ",
"       oooooooooooooooooooooooooooooooooooooooooooooooooo...    ",
"       oooooooooooooooooooooooooooooooooooooooooooooooooo...    ",
"       oooooooooooooooooooooooooooooooooooooooooooooooooo...    ",
"       oooooooooooooooooooooooooooooooooooooooooooooooooo...    ",
"       oooooooooooooooooooooooooooooooooooooooooooooooooo...    ",
"       oooooooooooooo....oooooooooooooo....oooooooooooooo...    ",
"       oooooooooooooo....oooooooooooooo....oooooooooooooo...    ",
"       oooooooooooooo....oooooooooooooo....oooooooooooooo...    ",
"       oooooooooooooo....oooooooooooooo....oooooooooooooo...    ",
"       ....ooooooo..........oooooooo..........ooooooo.......    ",
"       ....ooooooo..........oooooooo..........ooooooo.......    ",
"       ....ooooooo..........oooooooo..........ooooooo.......    ",
"       .....................................................    ",
"       .....................................................    ",
"       .....................................................    ",
"       .....................................................    ",
"       .....................................................    ",
"       .....................................................    "
};
