/* XPM */
static char *result[] = {
/* columns rows colors chars-per-pixel */
"64 64 77 1 ",
"  c black",
". c #020202",
"X c gray6",
"o c #001713",
"O c gray12",
"+ c #00231D",
"@ c #002B23",
"# c #002B24",
"$ c #002F27",
"% c #00342B",
"& c #003A2F",
"* c #003B31",
"= c #003F34",
"- c gray24",
"; c #004539",
": c #004F41",
"> c #005D4C",
", c #005F4E",
"< c #00745F",
"1 c #007B65",
"2 c #007F69",
"3 c gray26",
"4 c #434343",
"5 c #4E4E4E",
"6 c gray31",
"7 c #515151",
"8 c #5B5B5B",
"9 c #606060",
"0 c gray44",
"q c #008A71",
"w c #008B72",
"e c #00957A",
"r c #0101FF",
"t c #0105FF",
"y c #000AFE",
"u c #010AFF",
"i c #000FFE",
"p c #014CFF",
"a c #005EF2",
"s c #0058F6",
"d c #0059F7",
"f c #0052FB",
"g c #0062ED",
"h c #009C81",
"j c #009F83",
"k c #008D93",
"l c #00979E",
"z c #00A789",
"x c #00AF90",
"c c #00BA99",
"v c #00BD9B",
"b c #00BF9D",
"n c #00A1A8",
"m c #00A2A9",
"M c #00ADB4",
"N c #00C6A3",
"B c #00D7B1",
"V c #00DFB7",
"C c #00B9C1",
"Z c #00EFC4",
"A c #00FFD2",
"S c #909090",
"D c #AFAFAF",
"F c gray71",
"G c gray75",
"H c #C8C8C8",
"J c #CDCDCD",
"K c gray81",
"L c #DFDFDF",
"P c gray89",
"I c #EFEFEF",
"U c gray94",
"Y c #F1F1F1",
"T c gray97",
"R c #FBFBFB",
"E c white",
"W c None",
/* pixels */
"rrrrrrrrrrrrrrrrrrrrrrrrrrrrrrrrrrrrrrrrrrrrrrrrrrrrrrrrrrrrrrrr",
"rrrrrtppppppppppppppppppppppppppppppppppppppppppppppppppppurrrrr",
"rrrrtfCCCCCCCCCCCCCCCCCCCCCCCCCCCCCCCCCCCCCCCCCCCCCCCCCCCCdurrrr",
"rrrtsm                                                    layrrr",
"rrtfm                                                      lsyrr",
"rtfM       .............................................    msyr",
"rpC        ..........49999999999999999999999999999999O..     Mft",
"rpC        ..........DEEEEEEEEEEEEEEEEEEEEEEEEEEEEEEE7..     Mft",
"rpC        ..........DE                            XE7..     Mft",
"rpC        ..........DE *,,,,,,,,,,,,,,,,,,,,,,,,,oXE7..     Mft",
"rpC        ..........DE jAAAAAAAAAAAAAAAAAAAAAAAAA=XE7..     Mft",
"rpC        ..........DE jAAAAAAAAAAAAAAAAAAAAAAAAA=XE7..     Mft",
"rpC        ....377777HE jAAAAAAAAAAAAAAAAAAAAAAAAA=XE7..     Mft",
"rpC        ....KEEEEEEE jAAAAAAAAAAAAAAAAAAAAAAAAA=XE7..     Mft",
"rpC        ....KL       jAAAAAAAAAAAAAAAAAAAAAAAAA=XE7..     Mft",
"rpC        ....KL *:::::vAAAAABxxxxxxxxxxxxxxxxxxx#XE7..     Mft",
"rpC        ....KL bAAAAAAAAAAA2                    XE7..     Mft",
"rpC        ....KL bAAAAAAAAAAA2 IIIIIIIIIIIIIIIIIIIUE7..     Mft",
"rpC        ....KL bAAAAAAAAAAA2 EPGGGGGGGGGGGGGGGGGGG-..     Mft",
"rpC        ....KL bAAAAAAAAAAA2 ES......................     Mft",
"rpC        ....KL bAAAAAAAAAAA2 EYLLLLLLLLLLLF..........     Mft",
"rpC        ....KL bAAAAAAAAAAA2 GGGGGGGGGGGGTK..........     Mft",
"rpC        ....KL bAAAAAAAAAAA2             LK..........     Mft",
"rpC        ....KL bAAAAAAAAAAAZVVVVVVVVVVVz LK..........     Mft",
"rpC        ....KL bAAAAAAAAAAAAAAAAAAAAAAAb LK..........     Mft",
"rpC        ....KL bAAAAAAAAAAAAAAAAAAAAAAAb LK..........     Mft",
"rpC        ....KL bAAAAAAAAAAAAAAAAAAAAAAAb LK..........     Mft",
"rpC        ....KL bAAAAAAAAAAAAAAAAAAAAAAAb LK..........     Mft",
"rpC        ....KL bAAAAAAAAAAAAAAAAAAAAAAAb LK..........     Mft",
"rpC        ....KL eNNNNNNNNNNN1$$$$$$$$$$$+ LK..........     Mft",
"rpC        ....KL wccccccccccc> OOOOOOOOOOOOPK..........     Mft",
"rpC        ....KL wccccccccccc> EEEEEEEEEEEEEK..........     Mft",
"rpC        ....KL wccccccccccc> EEEEEEEEEEEEEK..........     Mft",
"rpC        ....KL wccccccccccc> EEELLLLLLLLLRK..........     Mft",
"rpC        ....KL wccccccccccc> EEE             ........     Mft",
"rpC        ....KL wccccccccccc> EEE            .........     Mft",
"rpC        ....KL wccccccccccc> EEE               ......     Mft",
"rpC        ....KL wccccccccccc> EEE            .........     Mft",
"rpC        ....KL wccccccccccc> EEEEEEEEEEEEEK..........     Mft",
"rpC        ....KL wccccccccccc> IIIIIIIIIIIIIK..........     Mft",
"rpC        ....KL wccccccccccc>             LK..........     Mft",
"rpC        ....KL @&&&&&qccccch22222222222w LK..........     Mft",
"rpC        ....KL       <cccccccccccccccccw LK..........     Mft",
"rpC        ....KEEEEEEE <cccccccccccccccccw LK..........     Mft",
"rpC        ....699999JE <cccccccccccccccccw LK..........     Mft",
"rpC        ..........DE <cccccccccccccccccw LK..........     Mft",
"rpC        ..........DE <cccccccccccccccccw LK..........     Mft",
"rpC        ..........DE @;;;;;;;;;;;;;;;;;% LK..........     Mft",
"rpC        ..........DE                     LK..........     Mft",
"rpC        ..........DEEEEEEEEEEEEEEEEEEEEEEEK..........     Mft",
"rpC        ..........5000000000000000000000008..........     Mft",
"rpC        .............................................     Mft",
"rpC        .............................................     Mft",
"rpC                                                          Mft",
"rpC                                                          Mft",
"rpC                                                          Mft",
"rudn                                                        lair",
"rrudl                                                      kairr",
"rrrual                                                    kgirrr",
"rrrrysMMMMMMMMMMMMMMMMMMMMMMMMMMMMMMMMMMMMMMMMMMMMMMMMMMMMairrrr",
"rrrrryffffffffffffffffffffffffffffffffffffffffffffffffffffirrrrr",
"rrrrrrttttttttttttttttttttttttttttttttttttttttttttttttttttrrrrrr",
"rrrrrrrrrrrrrrrrrrrrrrrrrrrrrrrrrrrrrrrrrrrrrrrrrrrrrrrrrrrrrrrr",
"WWWWWWWWWWWWWWWWWWWWWWWWWWWWWWWWWWWWWWWWWWWWWWWWWWWWWWWWWWWWWWWW"
};
