/* XPM */
static char *result[] = {
/* columns rows colors chars-per-pixel */
"64 64 3 1 ",
"  c black",
". c gray1",
"X c #FDFF57",
/* pixels */
"       .....................................................    ",
"       .....................................................    ",
"       .....................................................    ",
"       .....................................................    ",
"       .....................................................    ",
"       .....................................................    ",
"       .....................................................    ",
"       ..............XXXXXXXXXXXXXXXXXXXXXX.................    ",
"       ..............XXXXXXXXXXXXXXXXXXXXXX.................    ",
"       ..............XXXXXXXXXXXXXXXXXXXXXX.................    ",
"       ..............XXXXXXXXXXXXXXXXXXXXXX.................    ",
"       .......XXXXXXXXXXXXXXXXXXXXXXXXXXXXXXXXXXXX..........    ",
"       .......XXXXXXXXXXXXXXXXXXXXXXXXXXXXXXXXXXXX..........    ",
"       .......XXXXXXXXXXXXXXXXXXXXXXXXXXXXXXXXXXXX..........    ",
"       ....XXXXXXXXXXXXXXXXXXXXXXXXXXXXXXXXXXXXXXXXXX.......    ",
"       ....XXXXXXXXXXXXXXXXXXXXXXXXXXXXXXXXXXXXXXXXXX.......    ",
"       ....XXXXXXXXXXXXXXXXXXXXXXXXXXXXXXXXXXXXXXXXXX.......    ",
"       ....XXXXXXXXXXXXXXXXXXXXXXXXXXXXXXXXXXXXXXXXXX.......    ",
"       ....XXXXXXXXXXXXXXXXXXXXXXXXXXXXXXXXXXXXXXXXXX.......    ",
"       ....XXXXXXXXXXXXXXXXXXXXXXXXXXXXXXXXXXXXXXXXXX.......    ",
"       ....XXXXXXXXXXXXXXXXXXXXXXXXXXXXXXXXXXXXXXXXXX.......    ",
"       XXXXXXXXXXXXXXXXXXXXXXXXXXXXXXXXXXXXXXXXXXXXXXXXXX...    ",
"       XXXXXXXXXXXXXXXXXXXXXXXXXXXXXXXXXXXXXXXXXXXXXXXXXX...    ",
"       XXXXXXXXXXXXXXXXXXXXXXXXXXXXXXXXXXXXXXXXXXXXXXXXXX...    ",
"       XXXXXXXXXXXXXXXXXXXXXXXXXXXXXXXXXXXXXXXXXXXXXXXXXX...    ",
"       XXXXXXXXXXXXXXXXXXXXXXXXXXXXXXXXXXXX.................    ",
"       XXXXXXXXXXXXXXXXXXXXXXXXXXXXXXXXXXXX.................    ",
"       XXXXXXXXXXXXXXXXXXXXXXXXXXXXXXXXXXXX.................    ",
"       XXXXXXXXXXXXXXXXXXXXX................................    ",
"       XXXXXXXXXXXXXXXXXXXXX................................    ",
"       XXXXXXXXXXXXXXXXXXXXX................................    ",
"       XXXXXXXXXXXXXXXXXXXXX................................    ",
"       XXXXXXXXXXXXXXXXXXXXX................................    ",
"       XXXXXXXXXXXXXXXXXXXXX................................    ",
"       XXXXXXXXXXXXXXXXXXXXX................................    ",
"       XXXXXXXXXXXXXXXXXXXXX................................    ",
"       XXXXXXXXXXXXXXXXXXXXXXXXXXXXXXXXXXXX.................    ",
"       XXXXXXXXXXXXXXXXXXXXXXXXXXXXXXXXXXXX.................    ",
"       XXXXXXXXXXXXXXXXXXXXXXXXXXXXXXXXXXXX.................    ",
"       XXXXXXXXXXXXXXXXXXXXXXXXXXXXXXXXXXXXXXXXXXXXXXXXXX...    ",
"       XXXXXXXXXXXXXXXXXXXXXXXXXXXXXXXXXXXXXXXXXXXXXXXXXX...    ",
"       XXXXXXXXXXXXXXXXXXXXXXXXXXXXXXXXXXXXXXXXXXXXXXXXXX...    ",
"       XXXXXXXXXXXXXXXXXXXXXXXXXXXXXXXXXXXXXXXXXXXXXXXXXX...    ",
"       ....XXXXXXXXXXXXXXXXXXXXXXXXXXXXXXXXXXXXXXXXXX.......    ",
"       ....XXXXXXXXXXXXXXXXXXXXXXXXXXXXXXXXXXXXXXXXXX.......    ",
"       ....XXXXXXXXXXXXXXXXXXXXXXXXXXXXXXXXXXXXXXXXXX.......    ",
"       ....XXXXXXXXXXXXXXXXXXXXXXXXXXXXXXXXXXXXXXXXXX.......    ",
"       ....XXXXXXXXXXXXXXXXXXXXXXXXXXXXXXXXXXXXXXXXXX.......    ",
"       ....XXXXXXXXXXXXXXXXXXXXXXXXXXXXXXXXXXXXXXXXXX.......    ",
"       ....XXXXXXXXXXXXXXXXXXXXXXXXXXXXXXXXXXXXXXXXXX.......    ",
"       .......XXXXXXXXXXXXXXXXXXXXXXXXXXXXXXXXXXXX..........    ",
"       .......XXXXXXXXXXXXXXXXXXXXXXXXXXXXXXXXXXXX..........    ",
"       .......XXXXXXXXXXXXXXXXXXXXXXXXXXXXXXXXXXXX..........    ",
"       ..............XXXXXXXXXXXXXXXXXXXXXX.................    ",
"       ..............XXXXXXXXXXXXXXXXXXXXXX.................    ",
"       ..............XXXXXXXXXXXXXXXXXXXXXX.................    ",
"       ..............XXXXXXXXXXXXXXXXXXXXXX.................    ",
"       .....................................................    ",
"       .....................................................    ",
"       .....................................................    ",
"       .....................................................    ",
"       .....................................................    ",
"       .....................................................    ",
"       .....................................................    "
};
