/* XPM */
static char *result[] = {
/* columns rows colors chars-per-pixel */
"64 64 18 1 ",
"  c black",
". c #0101FF",
"X c #0105FF",
"o c #000AFE",
"O c #010AFF",
"+ c #000FFE",
"@ c #014CFF",
"# c #005EF2",
"$ c #0058F6",
"% c #0059F7",
"& c #0052FB",
"* c #0062ED",
"= c #008D93",
"- c #00979E",
"; c #00A1A8",
": c #00A2A9",
"> c #00ADB4",
", c #00B9C1",
/* pixels */
"................................................................",
"................................................................",
".....X@@@@@@@@@@@@@@@@@@@@@@@@@@@@@@@@@@@@@@@@@@@@@@@@@@@@O.....",
"....X&,,,,,,,,,,,,,,,,,,,,,,,,,,,,,,,,,,,,,,,,,,,,,,,,,,,,%O....",
"...X$:                                                    -#o...",
"..X&:                                                      -$o..",
".X&>                                                        :$o.",
".@,                                                          >&X",
".@,                                                          >&X",
".@,                                                          >&X",
".@,                                                          >&X",
".@,                                                          >&X",
".@,                                                          >&X",
".@,                                                          >&X",
".@,                                                          >&X",
".@,                                                          >&X",
".@,                                                          >&X",
".@,                                                          >&X",
".@,                                                          >&X",
".@,                                                          >&X",
".@,                                                          >&X",
".@,                                                          >&X",
".@,                                                          >&X",
".@,                                                          >&X",
".@,                                                          >&X",
".@,                                                          >&X",
".@,                                                          >&X",
".@,                                                          >&X",
".@,                                                          >&X",
".@,                                                          >&X",
".@,                                                          >&X",
".@,                                                          >&X",
".@,                                                          >&X",
".@,                                                          >&X",
".@,                                                          >&X",
".@,                                                          >&X",
".@,                                                          >&X",
".@,                                                          >&X",
".@,                                                          >&X",
".@,                                                          >&X",
".@,                                                          >&X",
".@,                                                          >&X",
".@,                                                          >&X",
".@,                                                          >&X",
".@,                                                          >&X",
".@,                                                          >&X",
".@,                                                          >&X",
".@,                                                          >&X",
".@,                                                          >&X",
".@,                                                          >&X",
".@,                                                          >&X",
".@,                                                          >&X",
".@,                                                          >&X",
".@,                                                          >&X",
".@,                                                          >&X",
".@,                                                          >&X",
".@,                                                          >&X",
".O%;                                                        -#+.",
"..O%-                                                      =#+..",
"...O#-                                                    =*+...",
"....o$>>>>>>>>>>>>>>>>>>>>>>>>>>>>>>>>>>>>>>>>>>>>>>>>>>>>#+....",
".....o&&&&&&&&&&&&&&&&&&&&&&&&&&&&&&&&&&&&&&&&&&&&&&&&&&&&+.....",
"......XXXXXXXXXXXXXXXXXXXXXXXXXXXXXXXXXXXXXXXXXXXXXXXXXXXX......",
"................................................................"
};
