/* XPM */
static char *result[] = {
/* columns rows colors chars-per-pixel */
"64 64 12 1 ",
"  c #FC4609",
". c #FC792D",
"X c #FC5C19",
"o c #FC3A01",
"O c #FC933E",
"+ c #FC641E",
"@ c #FC9F47",
"# c #FC7127",
"$ c #FCA64C",
"% c #FC5111",
"& c #FC8636",
"* c #FC3200",
/* pixels */
"$$O.+ o**o +.O$$$$$$$$$$$$$$$$$$$$$$$$$$$$$$$$$$$$O.X  X.OO&+ o*",
"$@O.X o**o X.O@$@@@@@@@@@@@@@@@@@@@@@@@@@@@@@@@$$@O.X  X.OO.X o*",
"OO&#X o**o X#&OOOOOOOOOOOOOOOOOOOOOOOOOOOOOOOOOOOO&#%  X#&&#X o*",
"..#+% o***o%+#....................................#+%oo%+##+% o*",
"+XX% oo***o %XX+XXXXXXXXXXXXXXXXXXXXXXXXXXXXXXX++XX% oo %XX% oo*",
"    oooooooo                                        oooo    oooo",
"ooo*oooo    oooo                                oooo    ooo*oooo",
"*****oo %XX% oo  XX+XXXXXXXXXXXXXXXXXXXXXXXX+X%%ooo %XX% o***ooo",
"*****o %+##+%oo X#............................#X oo%+##+%o***ooo",
"ooo**o X#&&#X  %#&OOOOOOOOOOOOOOOOOOOOOOOOOOOO&#%  X#&&#X o**ooo",
"   ooo X#&&.+%%X#&OOOOOOOOOOOOOOOOOOOOOOOOOOOO&#X%%+.&&.+% oooo*",
"+XX% o %+#.##+++#...&......................&...#++++#..##+X% oo*",
"..#+% o %X+##..#++XXX++X+XXXXXXXXXXXXX+X+++XXX++...#++++#.#+% o*",
"OO&#X ooo %+.&&.+%                            %+.&&.+%%+.&&#X o*",
"$@O.X ooo %+.&&.+% ooooo                ooooo %+.&&.+%%+&OO.X o*",
"$$O.+ oo %X+#..#++X ooo %XX+XXXXXXXXXXX  oo  X++#..#+X+.&@O.+ o*",
"$@O.X  %X###++++#.#X oo X#............#X oo X#.#++X+##.&O@O.X o*",
"$@O.X  X#&&.+%%+.&&#X  %#&OOOOOOOOOOOO&#%  X#&&.+%%X#&O@@@O.X o*",
"$@O.X  X.OO&+%%+.&&.+%%X#&O@@@@@@@@@@O&#X%%+.&&.+%%+.O@$$@O.X o*",
"$@O.X  +.O@O.+++#..##+++#.&&O@$$$$@O&&.#+++##..#+++.&@$$$@O.X o*",
"$@O.X  X.O@@O&.#+++##..#+++.&@$$$$@&.+++#..##+++#.&&O@$$$@O.X o*",
"$@O.X  X.O@@@O&#X%%+.&&.+%%+.O@$$@O.+%%+.&&.+%%X#&O@@@@$$@O.X o*",
"$@O.X  %#&OOOO&#%  X#&&.+%%X#&OOOO&#+%%+.&&#X  %#&OOOOO@@@O.X o*",
"$@O.X   X#....#X oo X#.#++++##.....#++++#.#X oo X#.....&O@O.X o*",
"$@O.X o  %XX+XX% ooo%X++#..#+XXXXX++#..#++X ooo %XXXXX+.&OO.X o*",
"$@O.X ooo      oooooo %+.&&.+%    %+.&&.+% oooooo     %+&OO.X o*",
"$@O.X ooo             %+.&&.+% ooo X#&&.+%            %+&OO.X o*",
"$@O.X o  %XXXXXXXXXXXX++#..##+X ooo%+#.#+XXXXXXXXXX%XX+.&OO.X o*",
"$@O.X   X#............##+++##.#X ooo%X+###..........#..&O@O.X o*",
"$@O.X  %#&OOOOOOOOOOOO&#X%%+.&&#X ooo %+.&OOOOOOOOOOOOO@@@O.X o*",
"$@O.X  X.O@$$@@@@@@$$@O.X  X#&&.+% ooo X.O@$$@@@@@@@@@@$$@O.X o*",
"$@O.X  X.O$$$$$$$$$$$$O.X o X#..#+X oo X.O$$$$$$$$$$$$$$$@O.X o*",
"$@O.X  X.O$$$$$$$$$$$$@.X oo%X+#..#X o X.O$$$$$$$$$$$$$$$@O.X o*",
"$@O.X  X.O@$$@@@@@@$$@O.X ooo %+.&&#X  X.O@$$@@@@@@@@@@$$@O.X o*",
"$@O.X  %#&OOOOOOOOOOOO&.+% ooo X#&&.+%%X#&OOOOOOOOOOOOO@@@O.X o*",
"$@O.X   X#............###+X%ooo X#.##+++##.........#...&O@O.X o*",
"$@O.X o  %XXXXXXXXXXXXX+#.#+%ooo%X+##..#+XXXXXXXXXXX%X+.&OO.X o*",
"$@O.X ooo             %+.&&#X ooo %+.&&.+%            %+&OO.X o*",
"$@O.X ooo       ooooo %+.&&.+%    %+.&&.+% ooooo      %+&OO.X o*",
"$@O.X o  %XXXXX  oo  X++#..#++XXXXX+#..#++X oooo%XXXXX+.&OO.X o*",
"$@O.X   X#..&.#X oo X#.#++++#.....##++++#.#X oo X#.....&O@O.X o*",
"$@O.X  %#&OOOO&#%  X#&&.+%%+#&OOOO&#X%%+.&&#X  %#&OOOOO@@@O.X o*",
"$@O.X  X.O@@@O&#X%%+.&&.+%%+.O@$$@O.+%%+.&&.+%%X#&O@@@@$$@O.X o*",
"$@O.X  X.O@@O&.#+++##..#+++.&@$$$$@&.+++#..##+++#.&&O@$$$@O.X o*",
"$@O.X  X.O@O.+++#..##+++#.&&O@$$$$@O&&.#+++##..#+++.&@$$$$O.X o*",
"$@O.X  X.OO&+%%+.&&.+%%X#&O@@@@$$@@@@O&#X%%+.&&.+%%+.O@$$@O.X o*",
"$@O.X  X#&&.+%%+.&&#X  %#&OOOOOOOOOOOO&#%  X#&&.+%%X#&O@@@O.X o*",
"$@O.X o%X###++++#.#X oo X#............#X oo X#.#++++##.&O@O.X o*",
"$$O.+ oo %X+#..#++X ooo %XXXXXXXXXXXXXX% ooo%X++#..#+X+.&@O.+ o*",
"$@O.X ooo %+.&&.+% oooooo              oooooo %+.&&.+%%+&OO.X o*",
"OO&#X ooo %+.&&.+%                            %+.&&.+%%+.&&#X o*",
"..#+% o %X++#..#+XXXXXXXXXXXXXXXXXXXXXXXXXXXXXX+#..#++++###+% o*",
"XX%% o %+#.#++++##...........#...#...#........##++X+#..#+X%% oo*",
"   ooo X#&&.+%%X#&OOOOOOOOOOOOOOOOOOOOOOOOOOOO&#X%%+.&&.+% ooooo",
"   ooo X#&&.+%%+.O@$@@@@@@@@@@@@@@@@@@@@@@@@$@O.+%%+.&&.+% oooo*",
"XXX% o %+#.#+++.&@$$$$$$$$$$$$$$$$$$$$$$$$$$$$@&.+++#..##+X% oo*",
"..#+% o %X+##.&&O@$$$$$$$$$$$$$$$$$$$$$$$$$$$$@O&&.#+++##.#+% o*",
"OO&#X ooo %+.&O@@@@@@$@@@@@@@@@@@@@@@@@@@@$@$@@@@O&#X%%+.&&#X o*",
"OO&#X o**o X#&OOOOOOOOOOOOOOOOOOOOOOOOOOOOOOOOOOOO&#%  X#&&#X o*",
"&.#+% o***o%+#....................................#+%oo%+##+% o*",
"+XX% oo***o %XX+XXXXXXXXXXXXXXXXXXXXXXXXXXXXXXX++XX% oo %XX% oo*",
"    oooooooo                                        oooo    oooo",
"ooo*ooo*oooo*oooooooooooooooooooooooooooooooooooooo*oooo*oooooo*",
"*****oooo*o*******************************************o******ooo"
};
